<svg width="18" height="18" viewBox="0 0 24 24" fill="none" xmlns="http://www.w3.org/2000/svg">
  <path d="M1 1L23 23" stroke="#666" stroke-width="2"/>
  <path d="M10.5 10.5C10.1 10.9 10 11.4 10 12C10 13.1 10.9 14 12 14C12.6 14 13.1 13.9 13.5 13.5" stroke="#666" stroke-width="2"/>
  <path d="M6.7 6.7C5 8 3.7 9.7 2.5 12C5 17 9 20 12 20C13.7 20 15.3 19.3 16.8 18.3" stroke="#666" stroke-width="2"/>
  <path d="M17.3 17.3C19 16 20.3 14.3 21.5 12C19 7 15 4 12 4C10.3 4 8.7 4.7 7.2 5.7" stroke="#666" stroke-width="2"/>
</svg>